<svg width="24" height="25" viewBox="0 0 24 25" fill="none" xmlns="http://www.w3.org/2000/svg">
<path fill-rule="evenodd" clip-rule="evenodd" d="M5.9963 12.6359C5.344 12.6359 4.86633 13.2503 5.02717 13.8825L6.42488 19.3756C6.76319 20.7052 7.96032 21.6359 9.33225 21.6359H14.6652C16.0383 21.6359 17.2362 20.7036 17.5734 19.3726L18.9644 13.8814C19.1245 13.2495 18.6469 12.6359 17.9951 12.6359H5.9963ZM9 16.6359C9 16.0836 9.44771 15.6359 10 15.6359C10.5523 15.6359 11 16.0836 11 16.6359V17.6359C11 18.1881 10.5523 18.6359 10 18.6359C9.44771 18.6359 9 18.1881 9 17.6359V16.6359ZM13 16.6359C13 16.0836 13.4477 15.6359 14 15.6359C14.5523 15.6359 15 16.0836 15 16.6359V17.6359C15 18.1881 14.5523 18.6359 14 18.6359C13.4477 18.6359 13 18.1881 13 17.6359V16.6359Z" fill="#323232"/>
<path d="M3 9.63586C3 9.08358 3.44772 8.63586 4 8.63586H20C20.5523 8.63586 21 9.08358 21 9.63586C21 10.1881 20.5523 10.6359 20 10.6359H4C3.44772 10.6359 3 10.1881 3 9.63586Z" fill="#323232"/>
<path fill-rule="evenodd" clip-rule="evenodd" d="M10.7071 5.34297C11.0976 4.95245 11.0976 4.31928 10.7071 3.92876C10.3166 3.53823 9.68342 3.53823 9.29289 3.92876L8.29289 4.92876C7.90237 5.31928 7.90237 5.95245 8.29289 6.34297C8.68342 6.7335 9.31658 6.7335 9.70711 6.34297L10.7071 5.34297ZM13.2929 5.34297C12.9024 4.95245 12.9024 4.31928 13.2929 3.92876C13.6834 3.53823 14.3166 3.53823 14.7071 3.92876L15.7071 4.92876C16.0976 5.31928 16.0976 5.95245 15.7071 6.34297C15.3166 6.7335 14.6834 6.7335 14.2929 6.34297L13.2929 5.34297Z" fill="#323232"/>
</svg>
